<svg width="208" height="36" viewBox="0 0 208 36" fill="none" xmlns="http://www.w3.org/2000/svg">
<path d="M8.96953 27.7487H7.46901e-06V1.27952H9.15047C11.7784 1.27952 14.0359 1.80942 15.9228 2.86922C17.8184 3.9204 19.2746 5.43256 20.2913 7.40568C21.308 9.3788 21.8164 11.7397 21.8164 14.4882C21.8164 17.2454 21.3037 19.6149 20.2784 21.5967C19.2616 23.5784 17.7926 25.0992 15.8711 26.159C13.9583 27.2188 11.6578 27.7487 8.96953 27.7487ZM4.79495 23.5999H8.73689C10.5808 23.5999 12.1188 23.2639 13.3509 22.5918C14.583 21.9111 15.5093 20.8987 16.1296 19.5546C16.75 18.2018 17.0602 16.5131 17.0602 14.4882C17.0602 12.4634 16.75 10.7833 16.1296 9.44773C15.5093 8.1036 14.5916 7.0998 13.3767 6.43635C12.1705 5.76428 10.6712 5.42825 8.87906 5.42825H4.79495V23.5999ZM25.8015 27.7487V7.8968H30.4801V27.7487H25.8015ZM28.1537 5.07929C27.4127 5.07929 26.7751 4.83373 26.2409 4.3426C25.7067 3.84286 25.4396 3.24403 25.4396 2.54611C25.4396 1.83958 25.7067 1.24075 26.2409 0.74962C26.7751 0.249878 27.4127 6.9259e-06 28.1537 6.9259e-06C28.9033 6.9259e-06 29.5409 0.249878 30.0665 0.74962C30.6007 1.24075 30.8678 1.83958 30.8678 2.54611C30.8678 3.24403 30.6007 3.84286 30.0665 4.3426C29.5409 4.83373 28.9033 5.07929 28.1537 5.07929ZM43.5607 35.6067C41.8806 35.6067 40.4373 35.3784 39.2311 34.9217C38.0248 34.4736 37.0555 33.8705 36.3231 33.1123C35.5907 32.354 35.0823 31.514 34.798 30.592L39.0114 29.571C39.2009 29.9587 39.4766 30.3422 39.8385 30.7213C40.2004 31.109 40.6872 31.4278 41.299 31.6777C41.9193 31.9362 42.6991 32.0654 43.6383 32.0654C44.9652 32.0654 46.0638 31.7423 46.934 31.0961C47.8042 30.4585 48.2394 29.4073 48.2394 27.9425V24.1815H48.0067C47.7655 24.664 47.4122 25.1595 46.9469 25.6678C46.4903 26.1762 45.8828 26.6027 45.1246 26.9473C44.375 27.292 43.4315 27.4643 42.2941 27.4643C40.7691 27.4643 39.3862 27.1067 38.1454 26.3916C36.9133 25.6678 35.931 24.5908 35.1987 23.1605C34.4749 21.7216 34.113 19.9208 34.113 17.7581C34.113 15.5782 34.4749 13.7386 35.1987 12.2394C35.931 10.7316 36.9176 9.5899 38.1583 8.81444C39.3991 8.03036 40.782 7.63832 42.3071 7.63832C43.4703 7.63832 44.4267 7.83649 45.1763 8.23284C45.9345 8.62057 46.5377 9.09016 46.9857 9.6416C47.4337 10.1844 47.7741 10.6971 48.0067 11.1796H48.2652V7.8968H52.8792V28.0718C52.8792 29.7692 52.4743 31.1736 51.6643 32.2851C50.8544 33.3966 49.7472 34.2281 48.3428 34.7795C46.9383 35.331 45.3443 35.6067 43.5607 35.6067ZM43.5995 23.7938C44.5904 23.7938 45.4348 23.5525 46.1327 23.07C46.8306 22.5875 47.3605 21.8939 47.7224 20.9892C48.0843 20.0845 48.2652 18.9988 48.2652 17.7323C48.2652 16.4829 48.0843 15.3886 47.7224 14.4495C47.3691 13.5103 46.8435 12.7822 46.1456 12.2652C45.4563 11.7397 44.6076 11.4769 43.5995 11.4769C42.5569 11.4769 41.6867 11.7483 40.9888 12.2911C40.2909 12.8339 39.7653 13.5792 39.412 14.527C39.0587 15.4662 38.8821 16.5346 38.8821 17.7323C38.8821 18.9472 39.0587 20.0113 39.412 20.9246C39.7739 21.8293 40.3038 22.5358 41.0017 23.0442C41.7082 23.5439 42.5742 23.7938 43.5995 23.7938ZM57.3102 27.7487V7.8968H61.9888V27.7487H57.3102ZM59.6624 5.07929C58.9214 5.07929 58.2838 4.83373 57.7496 4.3426C57.2154 3.84286 56.9483 3.24403 56.9483 2.54611C56.9483 1.83958 57.2154 1.24075 57.7496 0.74962C58.2838 0.249878 58.9214 6.9259e-06 59.6624 6.9259e-06C60.4121 6.9259e-06 61.0497 0.249878 61.5753 0.74962C62.1095 1.24075 62.3766 1.83958 62.3766 2.54611C62.3766 3.24403 62.1095 3.84286 61.5753 4.3426C61.0497 4.83373 60.4121 5.07929 59.6624 5.07929ZM76.349 7.8968V11.5156H64.9368V7.8968H76.349ZM67.7543 3.14063H72.4329V21.7776C72.4329 22.4066 72.5277 22.8891 72.7172 23.2251C72.9154 23.5525 73.1739 23.7766 73.4927 23.8972C73.8115 24.0178 74.1648 24.0781 74.5525 24.0781C74.8455 24.0781 75.1126 24.0566 75.3538 24.0135C75.6037 23.9704 75.7932 23.9317 75.9225 23.8972L76.7109 27.5548C76.461 27.641 76.1034 27.7357 75.6381 27.8391C75.1815 27.9425 74.6214 28.0028 73.958 28.0201C72.7862 28.0545 71.7307 27.8779 70.7915 27.4902C69.8523 27.0938 69.107 26.4821 68.5556 25.6549C68.0128 24.8277 67.7457 23.7938 67.7543 22.5531V3.14063ZM85.6105 28.1493C84.3525 28.1493 83.2195 27.9253 82.2114 27.4772C81.2119 27.0206 80.4192 26.3485 79.8333 25.461C79.256 24.5736 78.9673 23.4793 78.9673 22.1782C78.9673 21.0581 79.1741 20.1319 79.5877 19.3995C80.0013 18.6671 80.5657 18.0812 81.2808 17.6418C81.996 17.2024 82.8016 16.8706 83.6977 16.6466C84.6024 16.414 85.5372 16.246 86.5023 16.1426C87.6654 16.0219 88.6089 15.9142 89.3327 15.8195C90.0565 15.7161 90.582 15.561 90.9095 15.3542C91.2455 15.1388 91.4135 14.807 91.4135 14.359V14.2815C91.4135 13.3078 91.1249 12.5539 90.5476 12.0197C89.9703 11.4855 89.1388 11.2184 88.0532 11.2184C86.9072 11.2184 85.9982 11.4682 85.3261 11.968C84.6627 12.4677 84.2146 13.0579 83.982 13.7386L79.6136 13.1183C79.9582 11.912 80.5269 10.9039 81.3196 10.0939C82.1123 9.27541 83.0816 8.66365 84.2276 8.25869C85.3735 7.84511 86.6401 7.63832 88.0273 7.63832C88.9837 7.63832 89.9358 7.75033 90.8836 7.97435C91.8314 8.19837 92.6973 8.56887 93.4814 9.08585C94.2655 9.59421 94.8945 10.2878 95.3684 11.1667C95.8509 12.0455 96.0921 13.1441 96.0921 14.4624V27.7487H91.5945V25.0216H91.4394C91.155 25.5731 90.7544 26.09 90.2374 26.5725C89.729 27.0464 89.0871 27.4299 88.3117 27.7228C87.5448 28.0071 86.6444 28.1493 85.6105 28.1493ZM86.8254 24.7114C87.7645 24.7114 88.5788 24.5262 89.2681 24.1557C89.9574 23.7766 90.4873 23.2768 90.8578 22.6565C91.2369 22.0361 91.4264 21.3597 91.4264 20.6273V18.288C91.28 18.4086 91.0301 18.5206 90.6768 18.624C90.3322 18.7274 89.9444 18.8179 89.5136 18.8955C89.0828 18.973 88.6563 19.0419 88.2341 19.1022C87.8119 19.1626 87.4457 19.2143 87.1355 19.2573C86.4376 19.3521 85.813 19.5072 85.2615 19.7226C84.7101 19.938 84.275 20.2396 83.9561 20.6273C83.6373 21.0064 83.4779 21.4976 83.4779 22.1007C83.4779 22.9623 83.7924 23.6129 84.4214 24.0523C85.0504 24.4917 85.8517 24.7114 86.8254 24.7114ZM105.111 1.27952V27.7487H100.433V1.27952H105.111ZM132.814 8.55595C132.693 7.42722 132.185 6.54836 131.289 5.91937C130.401 5.29039 129.247 4.97589 127.825 4.97589C126.826 4.97589 125.968 5.12668 125.253 5.42825C124.538 5.72982 123.991 6.13909 123.612 6.65606C123.233 7.17304 123.039 7.76325 123.03 8.42671C123.03 8.97815 123.155 9.45635 123.405 9.86131C123.663 10.2663 124.012 10.6109 124.452 10.8953C124.891 11.171 125.378 11.4036 125.912 11.5932C126.446 11.7827 126.985 11.9421 127.528 12.0714L130.009 12.6918C131.009 12.9244 131.969 13.2389 132.891 13.6352C133.822 14.0316 134.653 14.5313 135.386 15.1345C136.127 15.7376 136.713 16.4657 137.143 17.3187C137.574 18.1717 137.79 19.1712 137.79 20.3171C137.79 21.8681 137.393 23.2337 136.601 24.4142C135.808 25.586 134.662 26.5036 133.163 27.1671C131.672 27.8219 129.867 28.1493 127.747 28.1493C125.688 28.1493 123.9 27.8305 122.384 27.1929C120.876 26.5553 119.696 25.6248 118.843 24.4012C117.998 23.1777 117.541 21.6871 117.473 19.9294H122.19C122.259 20.8513 122.543 21.6182 123.043 22.2299C123.543 22.8417 124.193 23.2984 124.995 23.5999C125.804 23.9015 126.709 24.0523 127.709 24.0523C128.751 24.0523 129.665 23.8972 130.449 23.587C131.241 23.2682 131.862 22.8288 132.31 22.2687C132.758 21.7 132.986 21.0366 132.995 20.2784C132.986 19.5891 132.784 19.0204 132.387 18.5723C131.991 18.1157 131.435 17.7366 130.72 17.435C130.014 17.1248 129.186 16.8491 128.239 16.6078L125.227 15.8324C123.047 15.2723 121.324 14.4236 120.057 13.2863C118.799 12.1403 118.17 10.6195 118.17 8.72396C118.17 7.16442 118.593 5.79875 119.437 4.62694C120.29 3.45513 121.449 2.54611 122.914 1.89989C124.378 1.24506 126.037 0.917638 127.89 0.917638C129.768 0.917638 131.414 1.24506 132.827 1.89989C134.248 2.54611 135.364 3.44651 136.174 4.60109C136.984 5.74705 137.402 7.06534 137.428 8.55595H132.814ZM151.407 7.8968V11.5156H139.994V7.8968H151.407ZM142.812 3.14063H147.491V21.7776C147.491 22.4066 147.585 22.8891 147.775 23.2251C147.973 23.5525 148.232 23.7766 148.55 23.8972C148.869 24.0178 149.222 24.0781 149.61 24.0781C149.903 24.0781 150.17 24.0566 150.412 24.0135C150.661 23.9704 150.851 23.9317 150.98 23.8972L151.769 27.5548C151.519 27.641 151.161 27.7357 150.696 27.8391C150.239 27.9425 149.679 28.0028 149.016 28.0201C147.844 28.0545 146.788 27.8779 145.849 27.4902C144.91 27.0938 144.165 26.4821 143.613 25.6549C143.07 24.8277 142.803 23.7938 142.812 22.5531V3.14063ZM163.402 28.1364C161.463 28.1364 159.783 27.7099 158.361 26.8569C156.939 26.0039 155.837 24.8105 155.053 23.2768C154.277 21.7431 153.889 19.9509 153.889 17.9003C153.889 15.8496 154.277 14.0531 155.053 12.5108C155.837 10.9685 156.939 9.77084 158.361 8.91783C159.783 8.06482 161.463 7.63832 163.402 7.63832C165.34 7.63832 167.021 8.06482 168.442 8.91783C169.864 9.77084 170.962 10.9685 171.738 12.5108C172.522 14.0531 172.914 15.8496 172.914 17.9003C172.914 19.9509 172.522 21.7431 171.738 23.2768C170.962 24.8105 169.864 26.0039 168.442 26.8569C167.021 27.7099 165.34 28.1364 163.402 28.1364ZM163.428 24.3883C164.479 24.3883 165.358 24.0997 166.064 23.5224C166.771 22.9365 167.296 22.1524 167.641 21.1701C167.994 20.1879 168.171 19.0936 168.171 17.8874C168.171 16.6725 167.994 15.5739 167.641 14.5916C167.296 13.6008 166.771 12.8124 166.064 12.2265C165.358 11.6406 164.479 11.3476 163.428 11.3476C162.35 11.3476 161.454 11.6406 160.739 12.2265C160.033 12.8124 159.503 13.6008 159.15 14.5916C158.805 15.5739 158.633 16.6725 158.633 17.8874C158.633 19.0936 158.805 20.1879 159.15 21.1701C159.503 22.1524 160.033 22.9365 160.739 23.5224C161.454 24.0997 162.35 24.3883 163.428 24.3883ZM176.521 27.7487V7.8968H181.058V11.2054H181.264C181.626 10.0595 182.247 9.17632 183.125 8.55595C184.013 7.92696 185.025 7.61247 186.163 7.61247C186.421 7.61247 186.71 7.62539 187.029 7.65124C187.356 7.66847 187.627 7.69863 187.843 7.74171V12.0455C187.645 11.9766 187.33 11.9163 186.899 11.8646C186.477 11.8043 186.068 11.7741 185.672 11.7741C184.819 11.7741 184.052 11.9594 183.371 12.3299C182.699 12.6918 182.169 13.1958 181.781 13.842C181.394 14.4882 181.2 15.2335 181.2 16.0779V27.7487H176.521ZM198.558 28.1364C196.568 28.1364 194.849 27.7228 193.402 26.8956C191.963 26.0599 190.855 24.8794 190.08 23.3544C189.304 21.8207 188.917 20.0156 188.917 17.9391C188.917 15.897 189.304 14.1048 190.08 12.5625C190.864 11.0116 191.958 9.80531 193.363 8.94368C194.767 8.07344 196.417 7.63832 198.313 7.63832C199.536 7.63832 200.691 7.83649 201.777 8.23284C202.871 8.62057 203.836 9.22371 204.672 10.0423C205.516 10.8608 206.179 11.9034 206.662 13.17C207.144 14.4279 207.386 15.9272 207.386 17.6676V19.1022H191.114V15.9487H202.901C202.892 15.0526 202.698 14.2556 202.319 13.5577C201.94 12.8512 201.41 12.2954 200.73 11.8904C200.058 11.4855 199.273 11.283 198.377 11.283C197.421 11.283 196.581 11.5156 195.857 11.9809C195.133 12.4376 194.569 13.0407 194.164 13.7903C193.768 14.5313 193.565 15.3456 193.557 16.233V18.9859C193.557 20.1405 193.768 21.1314 194.19 21.9585C194.612 22.7771 195.202 23.4061 195.961 23.8455C196.719 24.2763 197.606 24.4917 198.623 24.4917C199.304 24.4917 199.92 24.3969 200.471 24.2074C201.023 24.0092 201.501 23.7206 201.906 23.3414C202.311 22.9623 202.617 22.4927 202.823 21.9327L207.192 22.4238C206.916 23.5784 206.391 24.5865 205.615 25.4481C204.848 26.3011 203.866 26.9646 202.668 27.4385C201.471 27.9037 200.101 28.1364 198.558 28.1364Z" fill="white"/>
</svg>
